<?xml version="1.0" encoding="iso-8859-1"?>
<!-- Generator: Adobe Illustrator 19.0.0, SVG Export Plug-In . SVG Version: 6.00 Build 0)  -->
<svg version="1.1" id="Layer_1" xmlns="http://www.w3.org/2000/svg" xmlns:xlink="http://www.w3.org/1999/xlink" x="0px" y="0px"
	 viewBox="0 0 512 512" style="enable-background:new 0 0 512 512;" xml:space="preserve">
<path style="fill:#F4511E;" d="M331.6,392c-1.6-20-35.2-38-75.6-38s-74,18-75.6,38c0,4,0,2,0,2.4c0,22,34,40.4,76,40.4
	s76-18.4,76-40.4C332,394,332,396,331.6,392z M256,415.2c-28.8,0-52-9.2-52-20.4c0-0.4,0,1.2,0.4-2.8c2.4-8,24.4-17.2,51.6-17.2
	c5.2,0,10.4,1.2,15.2,1.6l26.4,6.4c5.6,2.8,9.2,9.2,10,9.2c0,4,0.4,2,0.4,2.4C308,405.6,284.8,415.2,256,415.2z"/>
<path style="fill:#BF360C;" d="M224,104h56v1.2C420,118.8,491.2,242.8,491.2,394c0-63.2-105.2-114-235.6-114S18.8,331.2,18.8,394
	C18.8,244.4,92,121.6,224,105.6V104z"/>
<path style="fill:#FF9E80;" d="M307.6,392c-0.8,0-4.4-6.4-10-9.2l-26.4-6.4c-4.8-0.4-10-1.2-15.2-1.2c-27.2,0-49.2,9.2-51.6,17.2
	c0,4-0.4,2-0.4,2.4c0,10.8,23.2,20.4,52,20.4s52-9.2,52-20.4C308,394,307.6,396,307.6,392z"/>
<path style="fill:#FF7043;" d="M408.8,329.2l-28-10.8c-34.8-11.6-78-19.2-124.8-19.2C141.2,299.2,48,344,48,392
	c0,52,93.2,93.6,208,93.6S464,444,464,392C464,368,443.2,346,408.8,329.2z M256,435.6c-42,0-76-18.8-76-40.8c0-0.4,0,1.2,0-2.8
	c1.6-20,35.2-38,75.6-38s74,18,75.6,38c0,4,0,2,0,2.8C332,416.8,298,435.6,256,435.6z"/>
<path style="fill:#E0E0E0;" d="M218,4c20.8,0,38,17.2,38,38c0-21.2,16.8-38,38-38s37.6,17.2,37.6,38S313.2,80,292,80
	c-3.6,0-8-0.4-12-1.6v26.8c-8-0.8-17.2-1.2-26-1.2c-10.4,0-18,0.4-30,1.6V78.4c-4,0.8-4.4,1.6-8,1.6c-21.2,0-36.4-17.2-36.4-38
	C179.6,21.2,196.8,4,218,4z"/>
<path style="fill:#FF9E80;" d="M256,278c-130.4,0-236,54-236,114c0,64,105.6,114,236,114s236-50,236-114C492,332,386.4,278,256,278z
	 M256,485.6C141.2,485.6,48,444,48,392c0-48,93.2-92.8,208-92.8c46.8,0,90,7.6,124.8,19.6l28,10.8C443.2,346.4,464,368,464,392
	C464,444,370.8,485.6,256,485.6z"/>
<path d="M492,398c-2.4,0-4-1.6-4-4c0-160.4-82-272-208.4-284.8c-2-0.4-4-2-3.6-4.4c0.4-2,2-3.6,4.4-3.6
	C411.2,114.4,496,229.2,496,394C496,396,494.4,398,492,398z"/>
<path d="M20,398c-2.4,0-4-1.6-4-4c0-165.2,79.6-277.2,207.6-292.4c2-0.4,4,1.2,4.4,3.6c0.4,2-1.2,4-3.6,4.4
	C100.8,124,24,232.8,24,394C24,396,22,398,20,398z"/>
<path d="M256,512c-132.4,0-240-52.8-240-118s107.6-118,240-118s240,52.8,240,118S388.4,512,256,512z M256,284
	c-128,0-232,49.2-232,110s104,110,232,110s232-49.2,232-110S384,284,256,284z"/>
<path d="M256,491.6c-118.8,0-212-42.8-212-97.6s93.2-97.6,212-97.6c46,0,89.6,6.4,126,18.8c2,0.8,3.2,2.8,2.4,5.2
	c-0.8,2-2.8,3.2-5.2,2.4c-35.6-12-78.4-18.4-123.6-18.4c-112.4,0-204,40.4-204,89.6s91.6,89.6,204,89.6s204-40.4,204-89.6
	c0-22-18.8-43.2-52.8-60c-2-0.8-2.8-3.2-2-5.2s3.2-2.8,5.2-2c36.8,18,57.2,42,57.2,67.2C468,448.8,374.8,491.6,256,491.6z"/>
<path d="M256,439.6c-44.8,0-80-19.2-80-43.6c0-0.8,0-1.2,0-2c2-23.6,37.2-41.6,79.6-41.6c42.8,0,77.6,18.4,79.6,41.6l0,0
	c0,0.8,0,1.2,0,2C336,420.4,300.8,439.6,256,439.6z M256,360c-38,0-70.4,15.6-72,34.4c0,0.4,0,0.8,0,1.6c0,19.6,32.8,35.6,72,35.6
	c38.8,0,72-16.4,72-35.6c0-0.4,0-1.2,0-1.6C326,375.2,294,360,256,360z"/>
<path d="M256,419.6c-27.2,0-56-8.4-56-23.6c0-0.8,0-2,0.4-2.8c3.2-13.6,30.4-20.8,55.6-20.8c5.6,0,10.8,0.4,15.6,0.8
	c2,0.4,3.6,2.4,3.6,4.4c-0.4,2-2.4,3.6-4.4,3.6c-4.8-0.4-9.6-0.8-14.8-0.8c-26.4,0-46,7.6-47.6,14.8c0,0.4,0,0.8,0,0.8
	c0,6.4,18.4,15.6,48,15.6s48-9.2,48-15.6c0-0.4,0-0.8,0-0.8c-0.4-2.4-3.6-5.2-8-7.2c-2-0.8-2.8-3.2-1.6-5.2c0.8-2,3.6-2.8,5.2-1.6
	c6.8,3.6,11.2,8,12.4,12.8c0,0.8,0.4,2,0.4,2.8C312,411.2,283.2,419.6,256,419.6z"/>
<path d="M224,109.6c-2.4,0-4-1.6-4-4v-22c-1.2,0.4-2.4,0.4-4,0.4c-22.8,0-40-18-40-42c0-23.2,18.8-42,42-42c16.8,0,31.2,10,38,24
	c6.8-14.4,21.2-24,37.6-24c22.8,0,41.6,18.8,41.6,42c0,22.8-19.6,42-42.8,42c-2.4,0-5.2-0.4-8-0.8v22c0,2.4-1.6,4-4,4s-4-1.6-4-4
	V78.4c0-1.2,0.4-2.4,1.6-3.2c0.8-0.8,2-1.2,3.2-0.8c3.6,0.8,8,1.2,11.2,1.2c18.8,0,34.8-15.6,34.8-34c0-19.2-14.8-34-33.6-34
	S260,22.8,260,41.6c0,2.4-1.6,4-4,4c-2.4,0-4-1.6-4-4c0-18.8-15.2-34-34-34s-34,15.2-34,34c0,19.2,13.6,34,32,34c2,0,2.4,0,4.4-0.4
	c0.8-0.4,1.6-0.4,2.8-0.8s2.4,0,3.2,0.8s1.6,2,1.6,3.2v27.2C228,108,226.4,109.6,224,109.6z"/>
<g>
</g>
<g>
</g>
<g>
</g>
<g>
</g>
<g>
</g>
<g>
</g>
<g>
</g>
<g>
</g>
<g>
</g>
<g>
</g>
<g>
</g>
<g>
</g>
<g>
</g>
<g>
</g>
<g>
</g>
</svg>
